<svg xmlns="http://www.w3.org/2000/svg" width="256" height="256" viewBox="0 0 100 100"><rect width="100" height="100" rx="20" fill="#ffffff"></rect><path fill="#000000" d="M18.74 75.45L6.44 75.45L6.44 24.55L41.19 24.55L41.19 34.54L18.74 34.54L18.74 44.98L38.98 44.98L38.98 55.00L18.74 55.00L18.74 75.45ZM93.56 42.99L93.56 42.99L81.13 42.99Q80.89 41.08 80.12 39.53Q79.34 37.99 78.08 36.90Q76.81 35.81 75.08 35.22Q73.35 34.64 71.27 34.64L71.27 34.64Q67.56 34.64 64.89 36.45Q62.22 38.27 60.79 41.70Q59.36 45.13 59.36 50L59.36 50Q59.36 55.07 60.81 58.49Q62.27 61.91 64.91 63.63Q67.56 65.36 71.19 65.36L71.19 65.36Q73.23 65.36 74.91 64.84Q76.59 64.32 77.87 63.31Q79.15 62.30 79.98 60.85Q80.81 59.40 81.13 57.56L81.13 57.56L93.56 57.63Q93.24 61.01 91.61 64.29Q89.98 67.57 87.15 70.27Q84.32 72.97 80.25 74.56Q76.19 76.15 70.94 76.15L70.94 76.15Q64.03 76.15 58.58 73.11Q53.12 70.06 49.96 64.22Q46.81 58.38 46.81 50L46.81 50Q46.81 41.60 50.01 35.76Q53.22 29.91 58.69 26.88Q64.16 23.85 70.94 23.85L70.94 23.85Q75.57 23.85 79.49 25.13Q83.42 26.41 86.40 28.86Q89.39 31.31 91.25 34.86Q93.12 38.42 93.56 42.99Z"></path></svg>